<?xml version="1.0" encoding="UTF-8" standalone="no"?>
<!DOCTYPE svg PUBLIC "-//W3C//DTD SVG 1.1//EN" "http://www.w3.org/Graphics/SVG/1.1/DTD/svg11.dtd">
<svg width="100%" height="100%" viewBox="0 0 1920 1080" version="1.1" xmlns="http://www.w3.org/2000/svg" xmlns:xlink="http://www.w3.org/1999/xlink" xml:space="preserve" xmlns:serif="http://www.serif.com/" style="fill-rule:evenodd;clip-rule:evenodd;stroke-linecap:round;stroke-linejoin:round;">
    <g transform="matrix(1,0,0,1,-4026.09,-5.06298)">
        <g id="snippets-web" transform="matrix(1,0,0,1,4026.09,5.06298)">
            <rect x="0" y="0" width="1920" height="1080" style="fill:rgb(9,124,186);"/>
            <g transform="matrix(1.1984,0,0,1.47129,-142.72,-229.976)">
                <path d="M1626.56,313.408C1626.56,286.454 1599.69,264.57 1566.6,264.57L307.792,264.57C274.699,264.57 247.832,286.454 247.832,313.408L247.832,717.742C247.832,744.697 274.699,766.581 307.792,766.581L498.689,766.581L588.802,852.793L677.601,766.581L1566.6,766.581C1599.69,766.581 1626.56,744.697 1626.56,717.742L1626.56,313.408Z" style="fill:white;"/>
            </g>
            <g transform="matrix(0.594744,0,0,0.594744,365.037,257.997)">
                <g transform="matrix(1,0,0,1,-211.179,-36.5105)">
                    <g>
                        <g transform="matrix(0.07487,0,0,0.07487,106.28,-51.1446)">
                            <path d="M1574.75,1063.92L2025.08,862.917L2025.08,1430.39L1574.75,1609.17L1574.75,1063.92ZM1431.41,1063.92L981.087,862.917L981.087,1430.39L1431.41,1609.18L1431.41,1063.92Z" style="fill:none;fill-rule:nonzero;stroke:rgb(12,124,186);stroke-width:98.31px;"/>
                        </g>
                        <g transform="matrix(0.07487,0,0,0.07487,106.28,-51.1446)">
                            <path d="M1048.78,732.504L1503.7,930.385L1954.02,732.504" style="fill:none;fill-rule:nonzero;stroke:rgb(12,124,186);stroke-width:98.31px;"/>
                        </g>
                        <g transform="matrix(0.09611,0,0,0.09611,88.2294,64.6338)">
                            <path d="M-717.567,-62.336C-552.091,-62.336 -445.664,-171.874 -445.664,-338.899C-445.664,-491.165 -537.332,-613.913 -717.563,-613.913L-917.999,-613.913L-917.999,-62.336L-717.567,-62.336ZM-553.649,-338.899C-553.649,-234.799 -611.91,-156.336 -717.567,-156.336L-810.789,-156.336L-810.789,-519.912L-717.567,-519.912C-613.467,-519.912 -553.649,-445.331 -553.649,-338.899ZM-211.162,-54.565C-78.323,-54.565 1.693,-153.23 1.693,-265.096C1.693,-378.52 -79.102,-476.406 -211.17,-476.406C-343.238,-476.406 -424.808,-378.52 -424.808,-265.096C-424.808,-153.23 -344.013,-54.565 -211.17,-54.565L-211.162,-54.565ZM-317.594,-265.096C-317.594,-335.792 -270.985,-387.844 -211.162,-387.844C-151.348,-387.844 -104.735,-336.571 -104.735,-265.875C-104.735,-194.404 -151.348,-143.131 -211.166,-143.131C-270.985,-143.131 -317.598,-193.625 -317.598,-265.096L-317.594,-265.096ZM16.12,-265.875C16.12,-153.23 99.247,-54.565 231.315,-54.565C320.652,-54.565 388.241,-98.846 416.21,-160.222L314.438,-191.293C302.007,-164.107 267.05,-143.131 229.758,-143.131C171.496,-143.131 123.326,-194.404 123.326,-265.875C123.326,-338.124 169.939,-387.84 229.758,-387.84C264.718,-387.84 295.794,-370.753 312.885,-341.231L414.656,-372.306C383.581,-434.453 319.098,-476.406 230.536,-476.406C97.693,-476.406 16.123,-379.299 16.123,-265.875L16.12,-265.875ZM574.338,-54.565C643.481,-54.565 701.746,-82.533 739.038,-138.471L741.367,-105.059C746.031,-75.541 767.782,-56.897 805.071,-56.897C817.502,-56.897 833.814,-58.45 855.565,-62.336L855.565,-150.898C834.589,-151.676 827.597,-160.222 827.597,-181.973L827.597,-469.414L723.501,-469.414L723.501,-216.93C699.418,-167.214 659.022,-143.131 617.844,-143.131C573.563,-143.131 550.258,-174.981 550.258,-237.128L550.258,-469.418L446.159,-469.418L446.159,-214.602C446.159,-109.727 490.44,-54.569 574.342,-54.569L574.338,-54.565Z" style="fill:rgb(12,124,186);fill-rule:nonzero;"/>
                        </g>
                        <g transform="matrix(0.09611,0,0,0.09611,88.2294,64.6338)">
                            <path d="M2494.28,-322.583C2494.28,-401.05 2472.53,-482.62 2372.31,-482.62C2307.84,-482.62 2255.01,-452.323 2222.38,-396.39C2211.5,-444.556 2174.99,-482.62 2107.4,-482.62C2040.59,-482.62 1986.21,-453.102 1955.91,-400.271L1955.91,-475.628L1861.91,-475.628L1861.91,-68.549L1966.01,-68.549L1966.01,-306.27C1981.55,-356.765 2022.72,-390.951 2063.12,-390.951C2101.96,-390.951 2126.05,-362.208 2126.05,-296.95L2126.05,-68.553L2230.15,-68.553L2230.15,-305.492C2245.68,-355.99 2286.08,-390.947 2326.48,-390.947C2366.1,-390.947 2390.18,-361.429 2390.18,-296.95L2390.18,-68.553L2494.28,-68.553L2494.28,-322.583ZM2666.58,-60.782C2725.62,-60.782 2779.23,-86.419 2815.74,-133.807L2818.07,-111.281C2823.51,-82.533 2843.7,-63.885 2882.55,-63.11C2894.98,-63.11 2912.85,-64.664 2932.27,-68.553L2932.27,-157.111C2912.07,-157.89 2904.3,-166.435 2904.3,-188.186L2904.3,-314.816C2904.3,-422.801 2835.94,-482.62 2719.4,-482.62C2658.81,-482.62 2602.88,-465.529 2550.05,-430.572L2581.9,-364.536C2625.4,-394.836 2665.81,-410.374 2709.31,-410.374C2769.13,-410.374 2800.2,-380.073 2800.2,-326.468L2800.2,-303.164C2773.79,-314.816 2737.27,-321.033 2700.76,-321.033C2598.99,-321.033 2527.52,-267.428 2527.52,-189.74C2527.52,-115.937 2587.34,-60.782 2666.58,-60.782ZM2696.1,-136.913C2656.48,-136.913 2626.18,-163.329 2626.18,-198.285C2626.18,-235.578 2664.25,-262.764 2717.85,-262.764C2744.27,-262.764 2775.34,-256.551 2800.2,-247.23L2800.2,-200.617C2800.2,-190.518 2793.99,-179.641 2783.11,-171.099C2765.24,-150.123 2731.06,-136.913 2696.1,-136.913ZM3190.55,-171.874C3178.12,-166.435 3155.59,-157.111 3133.83,-157.111C3112.08,-157.111 3094.21,-167.989 3094.21,-196.732L3094.21,-395.611L3180.45,-395.611L3180.45,-475.628L3094.21,-475.628L3094.21,-607.696L2990.11,-607.696L2990.11,-475.628L2937.29,-475.628L2937.29,-395.615L2990.11,-395.615L2990.11,-161.775C2990.11,-89.526 3038.28,-61.557 3095.77,-61.557C3140.05,-61.557 3183.55,-77.095 3211.52,-89.526L3190.55,-171.874ZM3455.46,-171.874C3443.03,-166.435 3420.5,-157.111 3398.75,-157.111C3377,-157.111 3359.13,-167.989 3359.13,-196.732L3359.13,-395.611L3445.36,-395.611L3445.36,-475.628L3359.13,-475.628L3359.13,-607.696L3255.03,-607.696L3255.03,-475.628L3202.2,-475.628L3202.2,-395.615L3255.03,-395.615L3255.03,-161.775C3255.03,-89.526 3303.19,-61.557 3360.68,-61.557C3404.97,-61.557 3448.47,-77.095 3476.44,-89.526L3455.46,-171.874Z" style="fill:rgb(12,124,186);fill-rule:nonzero;"/>
                        </g>
                    </g>
                </g>
            </g>
            <g transform="matrix(1.2618,0,0,1.2618,-110.683,-20.7091)">
                <text x="265.868px" y="433.181px" style="font-family:'LucidaGrande-Bold', 'Lucida Grande', sans-serif;font-weight:600;font-size:96px;fill:rgb(9,124,186);">snippets-web</text>
            </g>
            <g transform="matrix(2.18213,0,0,2.18213,1530.45,541.893)">
                <g transform="matrix(1,0,0,1,-100,-100)">
                    <path d="M160,46C160,37.169 152.831,30 144,30L56,30C47.169,30 40,37.169 40,46L40,154C40,162.831 47.169,170 56,170L144,170C152.831,170 160,162.831 160,154L160,46Z" style="fill:rgb(12,124,186);"/>
                    <path d="M70,80L90,100L70,120" style="fill:none;fill-rule:nonzero;stroke:white;stroke-width:8px;"/>
                    <path d="M130,80L110,100L130,120" style="fill:none;fill-rule:nonzero;stroke:white;stroke-width:8px;"/>
                </g>
            </g>
        </g>
    </g>
</svg>
